<svg width="1200" height="630" viewBox="0 0 1200 630" fill="none" xmlns="http://www.w3.org/2000/svg">
  <defs>
    <linearGradient id="bg" x1="122" y1="54" x2="1042" y2="585" gradientUnits="userSpaceOnUse">
      <stop stop-color="#F8F5ED" />
      <stop offset="1" stop-color="#EAE4D8" />
    </linearGradient>
    <pattern id="dots" width="24" height="24" patternUnits="userSpaceOnUse">
      <circle cx="12" cy="12" r="1" fill="#D7D1C5" />
    </pattern>
  </defs>

  <rect width="1200" height="630" fill="url(#bg)" />
  <rect width="1200" height="630" fill="url(#dots)" opacity="0.45" />

  <rect x="72" y="74" width="1056" height="482" fill="rgba(252,250,245,0.72)" stroke="#C8C1B5" />
  <text x="86" y="88" fill="#AAA59D" font-family="DejaVu Sans Mono, monospace" font-size="16">┌</text>
  <text x="1110" y="88" fill="#AAA59D" font-family="DejaVu Sans Mono, monospace" font-size="16">┐</text>
  <text x="86" y="558" fill="#AAA59D" font-family="DejaVu Sans Mono, monospace" font-size="16">└</text>
  <text x="1110" y="558" fill="#AAA59D" font-family="DejaVu Sans Mono, monospace" font-size="16">┘</text>

  <text x="118" y="142" fill="#2B2926" font-family="DejaVu Sans Mono, monospace" font-size="20" font-weight="700">autocss-lab</text>
  <rect x="282" y="120" width="114" height="30" rx="15" stroke="#C8C1B5" stroke-dasharray="4 6" />
  <text x="309" y="139" fill="#5C5954" font-family="DejaVu Sans Mono, monospace" font-size="12">2018 archive</text>

  <text x="118" y="194" fill="#5C5954" font-family="DejaVu Sans" font-size="28">
    Faithful sketch-to-code replay
  </text>
  <text x="118" y="232" fill="#5C5954" font-family="DejaVu Sans" font-size="24">
    notebook stages, contour trees, and one modern contrast pass
  </text>

  <line x1="118" y1="266" x2="424" y2="266" stroke="#C25535" stroke-opacity="0.5" />

  <rect x="118" y="314" width="284" height="170" fill="#FBFAF7" stroke="#D8D1C5" />
  <rect x="128" y="324" width="264" height="150" fill="#FFFFFF" stroke="#E2DCD1" />
  <rect x="162" y="352" width="198" height="28" stroke="#7A9A85" stroke-width="3" />
  <rect x="170" y="392" width="72" height="64" stroke="#7A9A85" stroke-width="3" />
  <rect x="260" y="392" width="100" height="26" stroke="#7A9A85" stroke-width="3" />
  <rect x="260" y="430" width="100" height="26" stroke="#7A9A85" stroke-width="3" />
  <text x="142" y="500" fill="#8A8680" font-family="DejaVu Sans Mono, monospace" font-size="14">01 input → 05 contours</text>

  <rect x="438" y="314" width="276" height="170" fill="#FBFAF7" stroke="#D8D1C5" />
  <rect x="458" y="336" width="232" height="18" fill="#EDE7DB" />
  <text x="460" y="349" fill="#BF4D28" font-family="DejaVu Sans Mono, monospace" font-size="12">&lt;div&gt;</text>
  <text x="476" y="379" fill="#2B2926" font-family="DejaVu Sans Mono, monospace" font-size="12">&lt;div&gt;</text>
  <text x="492" y="409" fill="#5C5954" font-family="DejaVu Sans Mono, monospace" font-size="12">&lt;p&gt;content&lt;/p&gt;</text>
  <text x="476" y="439" fill="#2B2926" font-family="DejaVu Sans Mono, monospace" font-size="12">&lt;/div&gt;</text>
  <text x="460" y="469" fill="#BF4D28" font-family="DejaVu Sans Mono, monospace" font-size="12">&lt;/div&gt;</text>
  <text x="460" y="500" fill="#8A8680" font-family="DejaVu Sans Mono, monospace" font-size="14">06 dom.txt</text>

  <rect x="750" y="314" width="274" height="170" fill="#FBFAF7" stroke="#D8D1C5" />
  <rect x="776" y="340" width="224" height="32" fill="#FFFFFF" stroke="#E2DCD1" />
  <rect x="776" y="388" width="72" height="66" fill="#FFFFFF" stroke="#E2DCD1" />
  <rect x="864" y="388" width="136" height="28" fill="#FFFFFF" stroke="#E2DCD1" />
  <rect x="864" y="426" width="136" height="28" fill="#FFFFFF" stroke="#E2DCD1" />
  <text x="772" y="500" fill="#8A8680" font-family="DejaVu Sans Mono, monospace" font-size="14">2026 interpretation</text>

  <text x="876" y="142" fill="#8A8680" font-family="DejaVu Sans, sans-serif" font-size="24">a field notebook, not a product launch</text>
</svg>
